<svg width="512" height="512" viewBox="0 0 512 512" fill="none" xmlns="http://www.w3.org/2000/svg">
<path d="M363.898 356.391C358.911 357.158 353.763 357.948 348.409 358.59L350.617 352.6L364.413 315.059C365.466 314.75 366.507 314.441 367.548 314.132C372.512 312.655 381.333 311.922 381.001 313.09C377.363 326.031 372.615 333.154 367.284 344.331C430.695 328.413 494.724 281.275 455.794 262.86C452.58 255.954 430.833 249.415 388.254 257.134C385.554 257.615 384.57 262.7 381.676 263.272L379.754 226.957L379.639 224.724C485.698 186.84 547.336 328.253 363.898 356.391Z" fill="#758755"/>
<path d="M357.115 346.085C362.445 335.984 360.764 321.497 364.402 309.804C384.936 322.367 458.197 294.676 454.055 260.628C503.407 286.819 425.742 344.905 357.115 346.085Z" fill="#859363"/>
<path d="M214.975 346.106C311.844 346.106 390.371 289.285 390.371 219.191C390.371 149.098 311.844 92.2764 214.975 92.2764C118.106 92.2764 39.5786 149.098 39.5786 219.191C39.5786 289.285 118.106 346.106 214.975 346.106Z" fill="#6E7C51"/>
<path d="M216.462 364.867C309.836 364.867 385.531 311.414 385.531 245.477C385.531 179.54 309.836 126.087 216.462 126.087C123.088 126.087 47.3928 179.54 47.3928 245.477C47.3928 311.414 123.088 364.867 216.462 364.867Z" fill="#7AB23F"/>
<path d="M31 219.033C63.9561 393.283 367.171 399.786 398.526 219.599C398.526 492.758 31 504.971 31 219.033Z" fill="#758755"/>
<path d="M214.643 355.533C166.092 355.533 120.356 341.733 85.842 316.664C50.493 290.988 31.0225 256.574 31.0225 219.767C31.0225 182.959 50.493 148.545 85.842 122.869C120.356 97.8 166.092 84 214.643 84C263.193 84 308.93 97.8 343.444 122.869C378.793 148.545 398.263 182.959 398.263 219.767C398.263 256.574 378.793 290.988 343.444 316.664C308.93 341.733 263.193 355.533 214.643 355.533ZM214.643 100.674C122.404 100.674 47.3699 154.099 47.3699 219.767C47.3699 285.434 122.415 338.859 214.643 338.859C306.871 338.859 381.916 285.434 381.916 219.767C381.916 154.099 306.871 100.674 214.643 100.674Z" fill="#758256"/>
<path d="M224.081 301.103C182.348 303.68 159.595 315.132 150.912 320.641C149.653 321.431 148.109 320.229 148.578 318.82C151.678 309.521 156.151 288.712 140.65 274.534C125.813 260.963 115.723 245.491 115.723 227.683C115.723 187.13 164.251 154.251 224.092 154.251C231.585 154.251 270 151.5 284.929 174.04C289.903 181.55 287.539 186.075 280 194C278.593 195.477 276.339 193.427 277.666 191.881C284.29 184.197 287.782 180.803 299.263 184.428C318.5 190.5 331.054 211.123 332.473 227.671C335.916 268.075 283.842 297.416 224.092 301.103H224.081Z" fill="#D7DBBA"/>
<path d="M278.168 295.947C322.818 294.79 358.91 256.792 341.796 211.166C347.413 238.766 322.818 290.965 278.168 295.947Z" fill="#D7DBBA"/>
<path d="M111.032 241.893C87.6151 195.969 119.944 155.726 180.266 155.863C138.202 163.433 104.386 202.714 111.032 241.893Z" fill="#D7DBBA"/>
<path d="M212.195 304.812C230.762 315.382 264.875 315.417 288.029 298.387C261.683 307.251 236.115 308.866 212.195 304.812Z" fill="#D7DBBA"/>
<path d="M170.634 153.348C195.378 135.608 230.567 136.364 253.984 152.031C228.737 145.022 193.33 146.706 170.634 153.348Z" fill="#D7DBBA"/>
<path d="M232.581 287.233C276.018 295.73 337.221 259.507 320.107 213.881C329.35 248.558 275.8 292.386 232.581 287.233Z" fill="#94C45B"/>
<path d="M250.106 167.018C209.918 148.466 125.939 176.02 131.773 224.406C130.984 188.526 209.335 151.775 250.106 167.018Z" fill="#94C45B"/>
</svg>
